<?xml version="1.0" standalone="no"?>
<!DOCTYPE svg PUBLIC "-//W3C//DTD SVG 20010904//EN"
 "http://www.w3.org/TR/2001/REC-SVG-20010904/DTD/svg10.dtd">
<svg version="1.0" xmlns="http://www.w3.org/2000/svg"
 width="470.000000pt" height="470.000000pt" viewBox="0 0 470.000000 470.000000"
 preserveAspectRatio="xMidYMid meet">
<metadata>
Created by potrace 1.11, written by Peter Selinger 2001-2013
</metadata>
<g transform="translate(0.000000,470.000000) scale(0.100000,-0.100000)"
fill="#000000" stroke="none">
<path d="M0 2350 l0 -2350 1260 0 1260 0 0 2350 0 2350 -1260 0 -1260 0 0
-2350z m2310 1280 l0 -140 -452 -2 -453 -3 -3 -1328 -2 -1327 -160 0 -160 0 0
1330 0 1330 -455 0 -455 0 0 140 0 140 1070 0 1070 0 0 -140z"/>
<path d="M3420 3789 c-297 -37 -499 -153 -594 -342 -70 -140 -80 -198 -80
-497 0 -241 2 -272 21 -342 57 -204 167 -324 361 -395 131 -48 181 -54 517
-62 294 -7 325 -10 385 -30 98 -34 151 -78 194 -161 39 -76 48 -148 44 -355
-5 -224 -15 -265 -89 -348 -109 -122 -280 -167 -639 -167 -175 0 -538 14 -702
26 l-88 7 0 -121 c0 -95 3 -121 14 -125 58 -23 468 -57 756 -64 453 -11 685
44 856 200 82 75 126 141 158 239 58 173 61 598 5 769 -66 204 -206 340 -409
400 -67 19 -110 22 -400 29 -275 7 -337 11 -400 28 -192 51 -261 138 -282 356
-14 143 0 324 32 409 58 155 175 230 403 258 129 16 646 1 900 -27 l57 -6 0
124 0 125 -112 17 c-323 48 -755 75 -908 55z"/>
</g>
</svg>
