<?xml version="1.0" standalone="no"?>
<!DOCTYPE svg PUBLIC "-//W3C//DTD SVG 20010904//EN"
 "http://www.w3.org/TR/2001/REC-SVG-20010904/DTD/svg10.dtd">
<svg version="1.0" xmlns="http://www.w3.org/2000/svg"
 width="720.000000pt" height="720.000000pt" viewBox="0 0 720.000000 720.000000"
 preserveAspectRatio="xMidYMid meet">
<metadata>
Created by potrace 1.14, written by Peter Selinger 2001-2017
</metadata>
<g transform="translate(0.000000,720.000000) scale(0.100000,-0.100000)"
fill="#000000" stroke="none">
<path d="M4278 6989 c-10 -5 -18 -8 -18 -5 0 11 -116 -38 -166 -69 -102 -65
-171 -151 -219 -270 -23 -57 -28 -88 -30 -165 -2 -57 3 -117 11 -149 14 -53
62 -157 87 -187 104 -128 241 -206 387 -219 28 -2 55 -7 60 -10 6 -4 10 -3 10
2 0 4 19 9 43 10 24 0 93 15 154 33 61 17 138 33 171 35 33 1 66 6 73 10 8 5
10 4 5 -3 -5 -8 3 -12 23 -13 17 -1 34 -2 39 -3 4 -1 23 -6 42 -10 92 -21 177
-71 249 -146 38 -39 109 -141 113 -161 2 -8 6 -16 9 -19 8 -7 64 -148 79 -200
7 -25 16 -54 20 -65 29 -71 36 -85 42 -85 5 0 8 -7 8 -15 0 -9 33 -48 73 -88
106 -107 218 -156 364 -162 111 -5 269 40 339 97 64 53 125 127 156 190 37 76
64 170 54 187 -4 5 -3 12 2 15 9 5 8 45 -3 125 -7 54 -38 145 -62 180 -10 14
-18 29 -18 32 0 17 -77 98 -129 136 -109 81 -220 115 -351 109 -44 -2 -108
-13 -142 -24 -34 -11 -65 -17 -68 -14 -3 3 -5 0 -5 -7 0 -7 -4 -10 -9 -7 -4 3
-22 1 -40 -4 -17 -5 -59 -12 -92 -15 -49 -5 -59 -4 -53 7 6 9 3 9 -10 -1 -10
-9 -20 -11 -24 -5 -4 5 -25 10 -47 12 -51 4 -149 38 -199 70 -112 70 -215 220
-271 392 -9 30 -24 71 -32 90 -8 19 -20 46 -25 60 -62 150 -176 258 -329 311
-71 25 -241 36 -271 18z"/>
<path d="M2700 6954 c-30 -7 -73 -20 -95 -29 -22 -8 -48 -18 -57 -22 -10 -3
-18 -9 -18 -14 0 -5 -7 -9 -15 -9 -13 0 -133 -112 -161 -151 -16 -22 -64 -123
-68 -144 -19 -92 -103 -284 -154 -355 -105 -144 -260 -226 -422 -222 -80 2
-201 21 -217 34 -7 6 -13 8 -13 5 0 -3 -33 6 -74 18 -193 60 -392 9 -536 -135
-109 -109 -159 -239 -154 -400 7 -247 185 -458 429 -507 34 -7 168 -7 205 0
156 29 316 150 388 292 18 36 51 124 56 150 6 27 30 91 39 103 5 6 6 12 3 12
-9 0 45 102 59 112 5 4 6 8 2 8 -13 0 78 113 124 153 40 36 166 103 199 106
108 13 185 8 340 -24 191 -40 239 -45 318 -33 51 7 172 50 197 70 6 4 24 19
41 33 18 14 37 25 42 25 16 0 91 90 123 148 110 200 70 462 -97 627 -128 127
-318 185 -484 149z"/>
<path d="M4271 5504 c-31 -12 -68 -26 -84 -32 -43 -18 -139 -122 -168 -182
-72 -149 -53 -315 53 -447 103 -129 263 -175 458 -133 60 14 114 18 185 16
113 -4 136 -8 197 -36 64 -31 81 -42 113 -76 69 -72 99 -126 135 -239 54 -172
61 -185 127 -251 67 -67 105 -89 188 -108 128 -30 239 6 341 109 51 52 64 73
84 134 57 177 -1 344 -155 443 -79 52 -185 66 -325 43 -164 -27 -297 -12 -381
41 -49 30 -129 112 -129 131 0 7 -3 13 -7 13 -16 0 -72 140 -98 245 -37 147
-111 246 -229 304 -95 48 -217 58 -305 25z"/>
<path d="M2690 5503 c-60 -12 -150 -63 -198 -112 -69 -70 -114 -167 -136 -296
-10 -56 -66 -173 -103 -215 -13 -13 -23 -28 -23 -32 0 -16 -115 -91 -168 -109
-46 -16 -76 -19 -163 -16 -59 3 -112 8 -118 12 -25 15 -206 15 -255 0 -171
-52 -274 -190 -274 -368 0 -94 23 -158 86 -236 92 -113 251 -162 400 -121 47
12 125 61 164 103 29 31 88 140 88 163 0 33 77 227 103 262 41 52 115 122 130
122 9 0 17 5 17 10 0 6 4 10 9 10 5 0 22 5 38 12 15 6 35 13 43 15 22 5 239 5
247 0 8 -5 62 -15 118 -23 38 -5 135 -5 155 0 8 2 30 7 48 11 18 4 35 12 38
16 3 5 14 9 25 9 10 0 19 5 19 10 0 6 7 10 15 10 8 0 15 5 15 10 0 6 5 10 12
10 15 0 108 100 108 117 0 7 4 13 10 13 5 0 13 12 16 28 4 15 11 33 17 40 5 6
7 12 3 12 -3 0 -1 12 5 28 16 41 14 151 -4 213 -20 67 -67 142 -121 192 -39
36 -124 83 -170 94 -32 8 -168 12 -196 6z"/>
<path d="M2555 4124 c-185 -43 -333 -184 -395 -379 -7 -22 -14 -82 -15 -133
-3 -156 57 -297 171 -401 78 -72 168 -117 269 -136 35 -6 151 -7 181 -1 116
24 200 68 299 158 152 137 273 211 397 242 58 15 204 16 227 2 6 -4 24 -10 39
-12 31 -6 137 -63 167 -91 11 -10 34 -29 50 -41 17 -13 67 -59 112 -103 45
-43 87 -79 93 -79 5 0 10 -4 10 -10 0 -5 6 -10 14 -10 7 0 19 -6 25 -14 11
-13 55 -31 136 -56 150 -45 356 8 483 124 134 122 201 311 171 481 -15 86 -21
102 -56 175 -50 104 -139 190 -248 241 -91 43 -83 41 -225 42 -106 0 -162 -10
-216 -38 -16 -8 -33 -15 -37 -15 -12 0 -106 -73 -172 -135 -33 -31 -94 -78
-135 -105 -41 -28 -80 -54 -85 -58 -6 -5 -19 -11 -30 -15 -11 -3 -40 -13 -65
-22 -68 -26 -88 -29 -180 -29 -93 1 -171 20 -232 60 -21 13 -42 24 -48 24 -5
0 -56 46 -112 101 -122 120 -169 160 -223 187 -105 53 -257 72 -370 46z"/>
<path d="M6635 4109 c-245 -25 -432 -204 -471 -452 -7 -42 -7 -42 -1 -113 18
-210 163 -385 372 -449 162 -50 366 -6 485 105 16 15 30 26 30 23 0 -9 45 55
80 112 43 72 62 138 66 237 6 155 -39 270 -151 383 -91 93 -186 139 -325 157
-14 2 -52 1 -85 -3z"/>
<path d="M369 4088 c-60 -20 -145 -63 -166 -83 -7 -7 -23 -22 -36 -32 -29 -24
-87 -98 -87 -112 0 -6 -4 -11 -9 -11 -8 0 -45 -88 -58 -140 -12 -51 -11 -202
3 -248 72 -240 278 -394 520 -387 216 7 403 143 473 345 12 34 24 87 27 119 7
64 7 62 -1 116 -9 65 -11 74 -18 81 -4 4 -7 15 -7 24 0 9 -12 39 -26 65 -75
142 -194 235 -348 274 -67 17 -201 11 -267 -11z"/>
<path d="M1510 3162 c-25 -10 -59 -25 -76 -34 -34 -19 -114 -92 -114 -104 0
-4 -6 -15 -13 -23 -46 -54 -67 -204 -40 -295 36 -124 142 -228 268 -263 28 -8
209 -7 270 2 88 12 140 12 154 1 10 -7 13 -7 8 0 -4 7 54 10 190 10 107 -1
199 2 205 5 6 4 -2 7 -16 7 -62 0 -204 94 -246 163 -53 89 -89 178 -105 260
-10 51 -67 148 -111 189 -71 65 -142 93 -244 96 -60 2 -98 -3 -130 -14z"/>
<path d="M5427 3155 c-67 -27 -102 -51 -154 -108 -53 -57 -68 -88 -99 -195
-55 -192 -131 -300 -254 -359 -47 -23 -68 -27 -145 -27 -49 0 -110 3 -135 7
-92 14 -116 18 -140 24 -14 3 -57 7 -97 9 -188 7 -353 -112 -411 -296 -41
-127 -1 -296 92 -394 57 -60 101 -90 170 -115 226 -83 473 46 541 283 10 32
18 64 19 70 6 33 31 99 62 162 59 122 161 208 276 233 44 9 183 6 228 -5 29
-7 94 -14 160 -18 57 -3 135 15 180 43 19 11 42 24 50 28 52 25 138 159 144
226 2 19 5 38 8 43 8 15 1 77 -15 149 -17 70 -117 190 -185 220 -20 9 -46 21
-57 27 -10 6 -56 12 -102 13 -65 2 -93 -2 -136 -20z"/>
<path d="M2703 2474 c-39 -6 -76 -15 -82 -18 -5 -4 -53 -9 -106 -11 -53 -3
-99 -6 -103 -6 -4 -1 -9 0 -12 1 -14 5 -70 4 -70 -1 0 -4 -15 -4 -33 0 -18 5
-41 6 -52 4 -11 -3 -33 -4 -50 -3 -16 1 -36 1 -42 1 -35 -4 -51 -4 -83 -2 -19
2 -48 2 -65 1 -25 -1 -22 -4 20 -14 153 -37 264 -156 321 -344 14 -46 27 -95
30 -110 6 -36 32 -98 63 -147 85 -135 262 -211 420 -180 96 18 162 56 238 135
28 28 77 110 78 130 0 3 3 10 6 15 4 6 10 30 15 55 20 118 -17 260 -92 345
-14 17 -29 35 -32 41 -21 36 -149 100 -217 109 -16 2 -41 6 -55 8 -14 2 -57
-2 -97 -9z"/>
<path d="M5834 2163 c-186 -34 -353 -176 -414 -353 -12 -36 -25 -72 -28 -80
-3 -8 -6 -19 -8 -25 -53 -215 -220 -419 -384 -471 -32 -10 -27 -9 -83 -18 -26
-5 -50 -12 -53 -17 -3 -5 -10 -7 -15 -3 -5 3 -38 7 -73 9 -55 3 -189 32 -236
52 -23 9 -41 13 -90 18 -25 2 -47 5 -50 6 -3 1 -9 0 -15 -1 -5 -1 -36 -4 -67
-6 -70 -5 -155 -35 -224 -79 -54 -35 -134 -108 -134 -124 0 -5 -6 -11 -13 -14
-21 -8 -73 -123 -94 -207 -15 -60 -6 -214 16 -279 34 -98 127 -227 192 -266
121 -73 196 -98 309 -100 183 -4 353 84 459 238 18 27 34 54 35 60 1 7 11 32
22 57 12 25 33 83 49 130 30 90 80 192 124 250 42 57 105 120 118 120 7 0 13
3 13 8 0 18 153 82 197 82 12 0 24 6 26 13 4 9 6 9 6 -1 1 -10 6 -10 21 -2 15
8 20 8 20 -2 0 -10 2 -10 8 0 8 12 65 11 122 -3 14 -4 36 -8 50 -9 14 -2 32
-6 40 -8 8 -3 32 -11 52 -17 20 -7 46 -14 58 -16 11 -3 30 -8 43 -11 93 -23
314 15 365 63 7 7 20 13 27 13 25 0 159 144 186 201 51 103 62 149 62 254 1
167 -47 282 -163 395 -55 54 -67 62 -145 99 -111 52 -212 66 -331 44z"/>
<path d="M1176 2163 c-2 -2 -16 -5 -32 -7 -124 -16 -290 -136 -359 -260 -53
-94 -69 -161 -69 -276 1 -120 32 -212 104 -312 139 -189 380 -263 620 -189 36
11 79 22 95 25 17 3 44 9 60 12 45 9 145 11 150 4 2 -4 17 -8 32 -9 59 -4 74
-8 149 -45 90 -45 182 -130 233 -217 44 -73 121 -264 121 -299 0 -5 5 -21 12
-37 6 -15 12 -30 12 -33 1 -3 15 -30 33 -60 64 -112 180 -207 296 -244 45 -14
84 -17 194 -14 136 3 139 4 213 40 86 42 154 99 203 166 28 41 70 117 72 132
0 3 4 11 8 18 5 6 6 12 3 12 -3 0 1 17 8 38 19 53 16 191 -4 265 -30 108 -59
155 -150 248 -92 92 -211 149 -322 153 -16 1 -28 5 -28 9 0 5 -4 6 -8 3 -4 -2
-37 -8 -72 -11 -36 -4 -103 -18 -150 -32 -99 -29 -100 -29 -164 -37 -64 -9
-60 -9 -66 -6 -3 1 -20 3 -39 5 -85 9 -113 14 -156 31 -11 4 -22 8 -25 9 -54
18 -90 45 -165 121 -70 71 -141 190 -170 284 -62 204 -89 260 -163 337 -111
117 -235 174 -384 178 -49 1 -90 0 -92 -2z"/>
</g>
</svg>
