<svg id="Layer_1" data-name="Layer 1" xmlns="http://www.w3.org/2000/svg" xmlns:xlink="http://www.w3.org/1999/xlink" viewBox="0 0 90 85"><defs><style>.cls-1{fill:none;}.cls-2{clip-path:url(#clip-path);}.cls-3{fill:#40a9ff;}.cls-4{fill:#fff;}</style><clipPath id="clip-path"><rect class="cls-1" width="90" height="85.01"/></clipPath></defs><g class="cls-2"><path class="cls-3" d="M59.6,72.4l8.2.5H69a19.5,19.5,0,0,1,3.1.7h0a6.8,6.8,0,0,0,6.5-1.4,6.7,6.7,0,1,0-8.9-10.1,7.5,7.5,0,0,0-2.1,3.2h0c-1.4,5.3-4,7.4-8,7.1m-.1-15.6h6.7l2.2.3h0a4.6,4.6,0,0,0,4.3-1.3,4.7,4.7,0,1,0-6.6-6.6,4.8,4.8,0,0,0-1.2,2.2h0c-.9,3.4-2.5,5.2-5.4,5.5M28.8,72.5l-8.3.5c4-.2,6.6,1.9,8.1,7.1h0a6.4,6.4,0,0,0,2,3.2,6.7,6.7,0,1,0,2.5-11.5h0a14.8,14.8,0,0,1-3.1.7H28.8m4.8-43.6h0a5.3,5.3,0,0,0,4.9-1.4,5.1,5.1,0,0,0,0-7.4,5.2,5.2,0,0,0-8.7,2.6h0c-.9,4.1-2.8,5.8-5.9,5.9h6.5a9.4,9.4,0,0,1,3.2.4m4.9,29a5.3,5.3,0,0,0-4.9-1.4h0a12,12,0,0,1-2.4.4H23.9c3.1,0,5,1.8,5.9,5.9h0a5.2,5.2,0,1,0,8.7-4.8m1-45.9a6.7,6.7,0,0,0,.6-9.5,6.8,6.8,0,0,0-9.5-.6,6.7,6.7,0,0,0-2,3.3h0c-1.5,5.2-4.1,7.3-8.1,7.1l8.3.4H30l3.1.6h0A6.4,6.4,0,0,0,39.5,12M54.4,36A6.3,6.3,0,0,0,51,37.8h0c-3.8,3.8-7.1,4.3-10.5,2.2l6.9,4.5a2.1,2.1,0,0,1,1,.6h.1l2.3,2.1h0a6.7,6.7,0,0,0,6.3,2.1A6.7,6.7,0,1,0,54.4,36m11.5-7.6H59.4c3,.1,4.6,2,5.5,5.4h0A4.8,4.8,0,0,0,66.1,36a4.7,4.7,0,1,0,6.6-6.6,4.6,4.6,0,0,0-4.3-1.3h0a8.2,8.2,0,0,1-2.1.3h-.4m13.3-6.1a6.7,6.7,0,0,0-.6-9.5,6.8,6.8,0,0,0-6.5-1.4h0a12.5,12.5,0,0,1-3.1.7H67.8l-8.2.5c4-.2,6.6,1.9,8,7.1h0a7.5,7.5,0,0,0,2.1,3.2,6.7,6.7,0,0,0,9.5-.6M90,42.6a6.5,6.5,0,1,0-6.5,6.5A6.5,6.5,0,0,0,90,42.6"/><path class="cls-4" d="M50.3,73.2a6.8,6.8,0,1,0,9,10.1,6.4,6.4,0,0,0,2-3.2h0c1.4-5.2,4.1-7.3,8.1-7.1l-8.3-.5H59.9a12.5,12.5,0,0,1-3.1-.7h0a6.8,6.8,0,0,0-6.5,1.4m5.9-44.5h0a9.3,9.3,0,0,1,3.2-.3h6.5c-3.1,0-5-1.8-5.9-5.8h0A4.5,4.5,0,0,0,58.6,20a5.2,5.2,0,0,0-7.3,7.3,5,5,0,0,0,4.9,1.4m9.7,28H58.6l-2.4-.4h0a5.2,5.2,0,1,0,2.4,8.7A4.5,4.5,0,0,0,60,62.5h0c.9-4,2.8-5.8,5.9-5.8m-55.2,6a6.7,6.7,0,0,0,.5,9.5,6.8,6.8,0,0,0,6.5,1.4h0a22.2,22.2,0,0,1,3.1-.7H22l8.3-.5c-4,.3-6.6-1.8-8.1-7.1h0a6.4,6.4,0,0,0-2-3.2,6.7,6.7,0,0,0-9.5.6m10.7-5.6h0l2.2-.3h6.7c-2.9-.2-4.5-2.1-5.4-5.5h0a4.8,4.8,0,0,0-1.2-2.2,4.7,4.7,0,0,0-6.6,0,4.5,4.5,0,0,0,0,6.6,4.6,4.6,0,0,0,4.3,1.3M6.5,36.1A6.5,6.5,0,1,0,13,42.6a6.6,6.6,0,0,0-6.5-6.5M30.3,12.8,22,12.4H20.8a13.5,13.5,0,0,1-3.1-.7h0a6.7,6.7,0,0,0-7,10.9,6.7,6.7,0,0,0,9.5.5,6.4,6.4,0,0,0,2-3.2h0c1.5-5.2,4.1-7.3,8.1-7.1m.1,15.7H23.6l-2.2-.3h0a4.8,4.8,0,0,0-4.3,1.2,4.7,4.7,0,0,0,0,6.7,4.7,4.7,0,0,0,6.6,0A5.3,5.3,0,0,0,24.9,34h0c.9-3.5,2.6-5.4,5.5-5.5M48.7,45.2l-6.9-4.5-1-.6h0a16,16,0,0,1-2.4-2.2h0a6.8,6.8,0,0,0-11.6,5.9,6.7,6.7,0,0,0,8,5.3,7,7,0,0,0,3.4-1.8h0c3.8-3.8,7.2-4.3,10.5-2.1M61.1,12.5l8.3-.5c-4,.2-6.7-1.9-8.1-7.1h0a6.4,6.4,0,0,0-2-3.2,6.8,6.8,0,1,0-9,10.1,6.8,6.8,0,0,0,6.5,1.4h0a12.5,12.5,0,0,1,3.1-.7h1.2"/></g></svg>